name GIL01_slow3EmgEnv.mot
datacolumns 51
datarows 11
range 0.58425927 0.59351856
endheader
                time	   rect_fem_l_emgRec	   rect_fem_l_emgEnv	   rect_fem_l_emgAve	   rect_fem_l_emgSDp	   rect_fem_l_emgSDm	   rect_fem_r_emgRec	   rect_fem_r_emgEnv	   rect_fem_r_emgAve	   rect_fem_r_emgSDp	   rect_fem_r_emgSDm	   med_hams_l_emgRec	   med_hams_l_emgEnv	   med_hams_l_emgAve	   med_hams_l_emgSDp	   med_hams_l_emgSDm	   med_hams_r_emgRec	   med_hams_r_emgEnv	   med_hams_r_emgAve	   med_hams_r_emgSDp	   med_hams_r_emgSDm	   lat_hams_l_emgRec	   lat_hams_l_emgEnv	   lat_hams_l_emgAve	   lat_hams_l_emgSDp	   lat_hams_l_emgSDm	   lat_hams_r_emgRec	   lat_hams_r_emgEnv	   lat_hams_r_emgAve	   lat_hams_r_emgSDp	   lat_hams_r_emgSDm	    tib_ant_l_emgRec	    tib_ant_l_emgEnv	    tib_ant_l_emgAve	    tib_ant_l_emgSDp	    tib_ant_l_emgSDm	    tib_ant_r_emgRec	    tib_ant_r_emgEnv	    tib_ant_r_emgAve	    tib_ant_r_emgSDp	    tib_ant_r_emgSDm	    gas_sol_l_emgRec	    gas_sol_l_emgEnv	    gas_sol_l_emgAve	    gas_sol_l_emgSDp	    gas_sol_l_emgSDm	    gas_sol_r_emgRec	    gas_sol_r_emgEnv	    gas_sol_r_emgAve	    gas_sol_r_emgSDp	    gas_sol_r_emgSDm	
          0.58425927	          0.12832643	          0.09147714	          0.14939895	          0.19484635	          0.10395155	          0.03392778	          0.40036196	          0.05467675	          0.07860253	          0.03075097	          0.05098689	          0.31848226	          0.19823645	          0.27141491	          0.12505800	          0.11555772	          0.07082102	          0.27225232	          0.41437520	          0.13012944	          0.43319351	          0.86845088	          0.34018272	          0.71247458	         -0.03210914	          0.02718601	          0.07105792	          0.03388151	          0.05214921	          0.01561381	          0.03790950	          0.24442892	          0.15325084	          0.18729987	          0.11920182	          0.22597774	          0.21512116	          0.27663016	          0.30386578	          0.24939454	          0.07419925	          0.67180474	          0.63130111	          0.82375854	          0.43884367	          0.04832621	          0.00253307	          0.09729933	          0.11293160	          0.08166706	
          0.58518523	          0.16481091	          0.09098794	          0.15025149	          0.19551213	          0.10499086	          0.07790493	          0.40779341	          0.05542860	          0.07994227	          0.03091493	          0.15436104	          0.32463790	          0.19934045	          0.27351696	          0.12516394	          0.11040016	          0.07153645	          0.27280352	          0.41508469	          0.13052234	          0.37319347	          0.86004888	          0.34091985	          0.71325991	         -0.03142020	          0.01988528	          0.07211652	          0.03445135	          0.05340432	          0.01549839	          0.17066949	          0.24476271	          0.15335076	          0.18712521	          0.11957630	          0.16030540	          0.21857679	          0.27670443	          0.30368429	          0.24972457	          0.04399070	          0.67163292	          0.63143098	          0.82261692	          0.44024505	          0.04966151	          0.00246311	          0.09736048	          0.11304036	          0.08168060	
          0.58611119	          0.16442238	          0.09047519	          0.15110511	          0.19617766	          0.10603255	          0.08919757	          0.41526686	          0.05618854	          0.08129400	          0.03108308	          0.19768127	          0.33070415	          0.20044395	          0.27561919	          0.12526871	          0.11912067	          0.07225661	          0.27335569	          0.41579273	          0.13091865	          0.24553280	          0.85145378	          0.34166163	          0.71405023	         -0.03072697	          0.00626632	          0.07320790	          0.03502643	          0.05467028	          0.01538259	          0.30633100	          0.24502397	          0.15345931	          0.18696564	          0.11995298	          0.08198379	          0.22189115	          0.27678147	          0.30351099	          0.25005195	          0.05508863	          0.67139666	          0.63155246	          0.82145438	          0.44165054	          0.04461662	          0.00240752	          0.09742250	          0.11315218	          0.08169282	
          0.58703709	          0.14299512	          0.08994053	          0.15195948	          0.19684273	          0.10707623	          0.04819655	          0.42276960	          0.05695657	          0.08265763	          0.03125550	          0.18468362	          0.33667150	          0.20154648	          0.27772077	          0.12537218	          0.12765013	          0.07298315	          0.27390888	          0.41649938	          0.13131839	          0.15440637	          0.84268749	          0.34240788	          0.71484539	         -0.03002962	          0.01331222	          0.07433098	          0.03560668	          0.05594692	          0.01526645	          0.04719375	          0.24521191	          0.15357627	          0.18682082	          0.12033172	          0.00705020	          0.22505729	          0.27686122	          0.30334589	          0.25037655	          0.03634897	          0.67109455	          0.63166529	          0.82027121	          0.44305937	          0.04087135	          0.00236567	          0.09748547	          0.11326716	          0.08170378	
          0.58796299	          0.07701652	          0.08938569	          0.15281454	          0.19750734	          0.10812174	          0.03229154	          0.43028843	          0.05773275	          0.08403323	          0.03143226	          0.10481433	          0.34253068	          0.20264782	          0.27982121	          0.12547443	          0.07821216	          0.07371772	          0.27446303	          0.41720460	          0.13172145	          0.01707791	          0.83377238	          0.34315825	          0.71564472	         -0.02932823	          0.00391297	          0.07548460	          0.03619212	          0.05723421	          0.01515002	          0.19568107	          0.24532599	          0.15370131	          0.18669032	          0.12071229	          0.09811812	          0.22806853	          0.27694392	          0.30318927	          0.25069857	          0.07953790	          0.67072505	          0.63176984	          0.81906845	          0.44447123	          0.03646682	          0.00233694	          0.09754935	          0.11338527	          0.08171343	
          0.58888894	          0.03585732	          0.08881253	          0.15367003	          0.19817129	          0.10916876	          0.07886146	          0.43780975	          0.05851714	          0.08542087	          0.03161342	          0.04009308	          0.34827271	          0.20374759	          0.28191987	          0.12557530	          0.03913782	          0.07446197	          0.27501833	          0.41790862	          0.13212804	          0.16357479	          0.82473117	          0.34391257	          0.71644789	         -0.02862275	          0.06404139	          0.07666746	          0.03678274	          0.05853215	          0.01503333	          0.18208574	          0.24536594	          0.15383404	          0.18657364	          0.12109445	          0.15171489	          0.23091847	          0.27702937	          0.30304096	          0.25101777	          0.21370158	          0.67028650	          0.63186646	          0.81784680	          0.44588611	          0.02165760	          0.00232069	          0.09761421	          0.11350659	          0.08172183	
          0.58981490	          0.01968879	          0.08822302	          0.15452579	          0.19883453	          0.11021704	          0.09510935	          0.44531959	          0.05930973	          0.08682045	          0.03179901	          0.03697300	          0.35388892	          0.20484540	          0.28401597	          0.12567483	          0.02191865	          0.07521752	          0.27557465	          0.41861132	          0.13253799	          0.26814786	          0.81558688	          0.34467036	          0.71725434	         -0.02791363	          0.07654199	          0.07787818	          0.03737850	          0.05984057	          0.01491643	          0.16062654	          0.24533175	          0.15397424	          0.18647045	          0.12147802	          0.18428738	          0.23360104	          0.27711770	          0.30290119	          0.25133421	          0.36462900	          0.66977714	          0.63195515	          0.81660713	          0.44730316	          0.00002216	          0.00231631	          0.09768003	          0.11363111	          0.08172895	
          0.59074080	          0.04675866	          0.08761925	          0.15538149	          0.19949682	          0.11126615	          0.00962192	          0.45280363	          0.06011049	          0.08823186	          0.03198911	          0.07504469	          0.35937099	          0.20594081	          0.28610869	          0.12577293	          0.03653984	          0.07598598	          0.27613202	          0.41931276	          0.13295127	          0.30189091	          0.80636278	          0.34543139	          0.71806341	         -0.02720064	          0.00772303	          0.07911530	          0.03797933	          0.06115928	          0.01479939	          0.18569027	          0.24522367	          0.15412155	          0.18638031	          0.12186279	          0.21734174	          0.23611049	          0.27720904	          0.30277013	          0.25164796	          0.32978616	          0.66919508	          0.63203609	          0.81535019	          0.44872199	          0.01734999	          0.00232318	          0.09774685	          0.11375888	          0.08173482	
          0.59166670	          0.09004489	          0.08700341	          0.15623693	          0.20015806	          0.11231581	          0.07493843	          0.46024729	          0.06091948	          0.08965517	          0.03218378	          0.00097875	          0.36471096	          0.20703349	          0.28819742	          0.12586955	          0.08984776	          0.07676886	          0.27669048	          0.42001297	          0.13336800	          0.21291856	          0.79708228	          0.34619534	          0.71887481	         -0.02648413	          0.00494390	          0.08037726	          0.03858525	          0.06248826	          0.01468224	          0.25282670	          0.24504220	          0.15427558	          0.18630271	          0.12224846	          0.22862844	          0.23844145	          0.27730334	          0.30264777	          0.25195891	          0.21226820	          0.66853839	          0.63210958	          0.81407692	          0.45014225	          0.03318642	          0.00234068	          0.09781469	          0.11388993	          0.08173946	
          0.59259260	          0.11242139	          0.08637781	          0.15709193	          0.20081813	          0.11336574	          0.10798406	          0.46763574	          0.06173674	          0.09109038	          0.03238310	          0.21411001	          0.36990126	          0.20812310	          0.29028150	          0.12596470	          0.10339619	          0.07756766	          0.27725002	          0.42071201	          0.13378803	          0.16622843	          0.78776890	          0.34696186	          0.71968776	         -0.02576405	          0.01534950	          0.08166240	          0.03919621	          0.06382739	          0.01456503	          0.20073305	          0.24478807	          0.15443608	          0.18623727	          0.12263490	          0.20014289	          0.24058894	          0.27740070	          0.30253429	          0.25226712	          0.16229604	          0.66780505	          0.63217568	          0.81278795	          0.45156342	          0.04642099	          0.00236822	          0.09788355	          0.11402426	          0.08174285	
          0.59351856	          0.15014012	          0.08574486	          0.15794630	          0.20147693	          0.11441568	          0.09381069	          0.47495396	          0.06256231	          0.09253754	          0.03258708	          0.36335373	          0.37493473	          0.20920929	          0.29236030	          0.12605829	          0.10597226	          0.07838378	          0.27781069	          0.42140990	          0.13421148	          0.13450369	          0.77844619	          0.34773073	          0.72050193	         -0.02504048	          0.00530629	          0.08296899	          0.03981224	          0.06517668	          0.01444780	          0.05385281	          0.24446225	          0.15460265	          0.18618346	          0.12302184	          0.12132164	          0.24254841	          0.27750111	          0.30242970	          0.25257252	          0.07184984	          0.66699301	          0.63223487	          0.81148440	          0.45298535	          0.05070117	          0.00240521	          0.09795350	          0.11416197	          0.08174503	
